<svg width="75" height="80" viewBox="0 0 75 80" fill="none" xmlns="http://www.w3.org/2000/svg">
<circle cx="37.5" cy="42.25" r="37.5" fill="#68B738"/>
<g clip-path="url(#clip0_94_6)">
<path d="M52.8051 0.25H52.512C52.0167 0.530622 51.6225 0.960886 51.3857 1.47938C50.9519 2.31607 50.6179 3.20102 50.3906 4.11598C50.3418 4.3911 50.2032 4.64217 49.9965 4.82972C49.7898 5.01727 49.5268 5.13066 49.2489 5.15206C48.3986 5.29896 47.5932 5.63864 46.8939 6.14518C46.1947 6.65171 45.6202 7.3117 45.2143 8.07474C44.6562 9.06545 44.179 10.0997 43.7871 11.1675C42.6917 14.0129 41.8509 16.951 40.8171 19.8196C40.3311 21.1263 40.308 21.1263 38.8423 21.1263C37.0911 21.1263 37.2146 20.8557 37.1914 22.7887C37.1914 23.3995 37.3766 23.7088 38.0246 23.6778C38.2251 23.6778 38.526 23.5773 38.6031 23.8402C38.6803 24.1031 38.418 24.2191 38.2637 24.3737C37.349 25.3044 36.1915 25.9582 34.9234 26.2603C33.4577 26.6546 31.9611 26.9639 30.534 27.4433C26.8697 28.6727 23.4831 30.3892 20.8449 33.2964C19.3022 35.1021 18.0668 37.1501 17.1883 39.3582C14.3571 46.0387 12.984 53.0747 11.9194 60.1804C11.418 63.5129 11.0631 66.8608 10.7931 70.232C10.6543 71.8866 10.5 73.5644 10.5 75.25H36.2117C36.2544 74.9097 36.1925 74.5644 36.0343 74.2603C35.787 73.6434 35.3852 73.1009 34.8676 72.6851C34.3501 72.2692 33.7343 71.9942 33.0797 71.8866C32.5397 71.7629 32.478 71.6005 32.8097 71.1753C33.3508 70.4515 33.7655 69.641 34.0363 68.7783C35.2937 65.0593 35.7797 61.1778 36.3891 57.3351C36.7334 54.3999 37.6341 51.5576 39.0429 48.9613C40.1417 47.0503 41.6073 45.3763 43.3551 44.0361C43.9954 43.549 44.0186 43.549 44.1266 44.3763C44.2037 44.9253 44.2191 45.4897 44.2577 46.0464C44.4892 49.6993 44.4428 53.3645 44.1189 57.0103C43.8276 59.8362 43.7888 62.6826 44.0031 65.5155C44.3098 68.8043 44.8956 72.0609 45.7543 75.25H56.0143C55.8804 74.413 55.4959 73.6365 54.9118 73.0234C54.3276 72.4104 53.5715 71.9896 52.7434 71.817C51.7765 71.663 50.788 71.7157 49.8429 71.9716C49.38 72.0799 49.1871 71.9716 49.1486 71.4691C48.8294 67.3757 49.0891 63.2576 49.92 59.2371C50.9489 54.5956 51.7369 49.9038 52.2806 45.1804C52.483 43.2729 53.0822 41.4291 54.0394 39.768C54.9574 38.1289 55.7597 36.4278 56.6623 34.7809C57.0206 34.1821 57.2363 33.5085 57.2925 32.8125C57.3487 32.1165 57.2439 31.4168 56.9863 30.768C56.778 30.2191 56.5774 29.6624 56.3229 29.1366C55.5514 27.6289 54.78 26.1366 54.0703 24.6134C53.6923 23.8402 53.7771 23.7474 54.618 23.7242C55.8754 23.7242 55.8754 23.7242 55.8986 22.4562C55.8986 22.2861 55.8986 22.116 55.8986 21.9459C55.8986 21.4124 55.698 21.1186 55.1271 21.1727C54.7414 21.1727 54.3557 21.1727 53.9546 21.1727C53.4223 21.1727 53.268 20.9485 53.3991 20.3995C53.6594 19.5071 54.1713 18.709 54.8734 18.1014C55.5755 17.4937 56.4378 17.1023 57.3566 16.9742C59.0658 16.8257 60.7877 16.9378 62.4634 17.3067C62.6568 17.3678 62.8664 17.3501 63.0468 17.2575C63.2273 17.1649 63.3641 17.0048 63.4277 16.8119C63.7363 16.0387 64.0757 15.2655 64.4229 14.4923C64.5015 14.3551 64.5363 14.197 64.5225 14.0394C64.5087 13.8818 64.447 13.7322 64.3457 13.6108C61.8771 10.4716 59.2003 7.54124 55.5514 5.66237C55.3751 5.58631 55.2206 5.46722 55.1021 5.31595C54.9835 5.16469 54.9046 4.98607 54.8726 4.79639C54.6661 3.69112 54.3375 2.61231 53.8929 1.5799C53.6842 1.02986 53.3023 0.562975 52.8051 0.25V0.25Z" fill="black"/>
</g>
<defs>
<clipPath id="clip0_94_6">
<rect width="54" height="75" fill="white" transform="translate(10.5 0.25)"/>
</clipPath>
</defs>
</svg>
