<svg width="101" height="76" viewBox="0 0 101 76" fill="none" xmlns="http://www.w3.org/2000/svg">
<circle cx="51.5" cy="38.25" r="37.5" fill="#68B738"/>
<g clip-path="url(#clip0_95_1)">
<path d="M92.8387 21.5676C93.7046 20.19 94.8553 19.0136 96.2137 18.1176C96.9637 17.5926 97.4137 17.5926 97.8637 18.5676C98.4637 19.9926 98.9887 21.4926 98.5387 23.0676C98.4568 23.3348 98.4413 23.6178 98.4936 23.8923C98.5459 24.1668 98.6643 24.4243 98.8387 24.6426C99.2887 25.2426 99.6637 25.8426 100.039 26.3676C100.549 27.0155 100.88 27.7861 100.999 28.6023C101.117 29.4185 101.019 30.2514 100.714 31.0176C100.438 31.7615 100.386 32.5696 100.564 33.3426C100.714 34.0852 100.714 34.8501 100.564 35.5926C100.503 36.1487 100.278 36.6741 99.9173 37.1016C99.5566 37.5291 99.0766 37.8393 98.5387 37.9926C97.5793 38.1752 96.7231 38.7103 96.1387 39.4926C96.0678 39.6079 95.9685 39.7029 95.8503 39.7686C95.7321 39.8342 95.5989 39.8684 95.4637 39.8676C94.5637 40.0176 92.3137 37.9926 92.3137 37.0926V36.6426C92.3887 33.9426 92.2387 33.7176 89.7637 32.5926C89.2456 32.41 88.7815 32.1006 88.4137 31.6926C87.9637 31.0926 87.3637 31.1676 86.6887 31.3926C86.0137 31.6176 85.6387 32.0676 85.7137 32.8176C85.9398 34.6333 86.0151 36.4646 85.9387 38.2926C85.9437 38.5013 85.9949 38.7062 86.0887 38.8926C88.4137 42.2676 89.3137 46.2426 90.4387 50.0676C91.3387 52.9926 92.9887 54.5676 95.9887 54.7926C96.4687 54.8309 96.9452 54.9062 97.4137 55.0176C98.03 55.1167 98.6025 55.3983 99.0571 55.8262C99.5117 56.254 99.8275 56.8084 99.9637 57.4176C100.489 58.9926 100.189 59.3676 98.6137 59.3676H93.7387C93.1075 59.3996 92.4888 59.1843 92.0137 58.7676C91.2546 58.1271 90.3924 57.6199 89.4637 57.2676C88.437 56.8887 87.5484 56.2091 86.9137 55.3176C86.0352 54.0903 85.0296 52.959 83.9137 51.9426C81.8137 49.7676 79.5637 47.6676 77.6137 45.4176C76.1292 43.8845 75.2729 41.8509 75.2137 39.7176C75.2137 39.0426 75.0637 38.7426 74.3137 39.0426C74.0891 39.1851 73.8296 39.263 73.5637 39.2676C71.4637 39.2676 70.4137 40.5426 69.6637 42.4176C68.9887 43.9926 68.0887 45.4926 67.2637 47.0676C66.7959 48.0535 66.5403 49.1267 66.5137 50.2176C66.5137 52.0176 66.9637 52.6176 68.6137 53.2176C69.6637 53.5926 70.6387 53.9676 71.1637 55.0176C71.7637 56.2176 71.6137 56.5176 70.3387 56.5926H65.2387C64.9447 56.6218 64.6489 56.5578 64.3932 56.4098C64.1375 56.2617 63.9348 56.0371 63.8137 55.7676L62.4637 53.5176C62.0657 52.9306 61.811 52.2584 61.7198 51.555C61.6286 50.8517 61.7036 50.1368 61.9387 49.4676C62.2633 48.1653 62.2889 46.8063 62.0137 45.4926C61.8246 44.5777 61.8409 43.6323 62.0614 42.7244C62.2819 41.8166 62.701 40.9689 63.2887 40.2426C63.7387 39.7176 63.7387 39.4926 62.9887 39.3426C59.9219 38.6912 56.9487 37.6581 54.1387 36.2676C54.1188 36.2676 54.0997 36.2597 54.0856 36.2457C54.0716 36.2316 54.0637 36.2125 54.0637 36.1926C51.6637 35.2926 51.2137 35.4426 50.5387 37.9176C49.9387 40.0176 49.3387 42.1176 48.8887 44.2926C48.3637 46.6926 48.9637 48.9426 49.7137 51.1926C50.0137 52.0926 50.9137 52.0176 51.5887 52.2426C53.0887 52.6926 54.3637 53.2926 54.9637 54.8676C55.4887 56.0676 55.4137 56.2176 54.1387 56.2176C52.8637 56.2176 51.5887 56.1426 50.2387 56.2176C49.0995 56.2383 47.9876 55.8677 47.0887 55.1676C43.4887 52.7676 42.4387 49.0926 42.1387 45.1176C41.9887 42.6426 40.6387 40.6926 39.0637 38.8176C38.7637 38.4426 38.4637 38.2926 38.0137 38.5926C36.4038 39.4803 34.723 40.2329 32.9887 40.8426C29.3694 42.1206 26.1934 44.4115 23.8387 47.4426C22.9594 48.5489 22.39 49.869 22.1887 51.2676C21.9637 52.6176 22.3387 53.2176 23.6887 53.5926C25.0387 53.9676 25.7137 54.7176 25.8637 56.1426C25.9387 56.7426 25.7137 57.0426 25.1137 57.0426H19.0387C18.8399 57.0286 18.6474 56.9666 18.4776 56.8622C18.3079 56.7577 18.1659 56.6138 18.0637 56.4426C17.1216 55.2762 16.6174 53.8169 16.6387 52.3176C16.5993 49.7264 16.8255 47.1378 17.3137 44.5926C17.4138 43.8304 17.6984 43.1041 18.1427 42.4768C18.5871 41.8494 19.1778 41.34 19.8637 40.9926C24.2887 38.8926 26.6137 34.9176 28.7137 30.7926C29.1637 29.9676 28.7887 29.8176 28.0387 29.8926C25.9397 30.184 23.9509 31.0105 22.2637 32.2926C20.0543 33.9043 17.9731 35.6846 16.0387 37.6176C13.9759 39.7129 11.2407 41.0141 8.31367 41.2926C2.83867 41.5926 0.288672 38.5176 0.513672 33.5676C0.563969 31.8798 1.20041 30.2622 2.31367 28.9926C2.70069 28.4909 3.22847 28.1159 3.82962 27.9155C4.43077 27.7151 5.07801 27.6985 5.68867 27.8676C6.81367 28.1676 7.11367 28.7676 6.66367 29.8926C6.43867 30.3426 6.13867 30.7176 5.91367 31.1676C5.59012 31.6274 5.33731 32.133 5.16367 32.6676C4.33867 34.9176 5.46367 36.4926 7.78867 36.7176C10.2637 36.9426 12.2887 35.8926 14.1637 34.3926C16.4226 32.5838 18.4392 30.4916 20.1637 28.1676C21.4531 26.4707 23.0767 25.0561 24.9343 24.0112C26.7918 22.9664 28.8439 22.3134 30.9637 22.0926C32.6887 21.8676 34.1887 21.1176 35.8387 20.6676C38.9245 19.7268 42.1379 19.2714 45.3637 19.3176C46.8578 19.3799 48.3461 19.0976 49.7137 18.4926C53.3887 16.9926 57.2137 16.9926 61.0387 17.7426C64.0387 18.3426 67.0387 19.0926 69.9637 19.8426C71.7044 20.167 73.4943 20.1159 75.2137 19.6926C78.5052 18.8583 81.872 18.3558 85.2637 18.1926C87.4855 18.0845 89.7 18.5223 91.7137 19.4676C93.2137 20.1426 93.2137 20.1426 92.8387 21.5676Z" fill="black"/>
</g>
<defs>
<clipPath id="clip0_95_1">
<rect width="100.5" height="42" fill="white" transform="translate(0.5 17.25)"/>
</clipPath>
</defs>
</svg>
