<svg width="91" height="91" viewBox="0 0 91 91" fill="none" xmlns="http://www.w3.org/2000/svg">
<rect x="0.25" y="0.75" width="90" height="90" fill="#68B738"/>
<path d="M42.8125 24.75C40.3656 24.75 38.4625 26.7891 38.4625 29.3719C38.4625 31.9547 40.3656 33.9938 42.8125 33.9938C45.2594 33.9938 47.1625 31.9547 47.1625 29.3719C47.1625 26.7891 45.2594 24.75 42.8125 24.75ZM42.8125 26.5172C44.3078 26.5172 45.3953 27.7814 45.3953 29.3719C45.3953 30.8672 44.2127 32.2266 42.8125 32.2266C41.3172 32.2266 40.2297 30.9623 40.2297 29.3719C40.2297 27.8766 41.3988 26.5172 42.8125 26.5172V26.5172ZM26.5 61.8609C26.5 63.6281 27.1117 65.1234 28.5391 66.3469C30.0344 67.6247 31.8016 67.5159 31.8016 67.5159H60.3484C61.5175 67.5159 63.0672 66.945 64.2906 65.3409C65.5548 63.8456 65.4733 61.8066 65.4733 61.8066V35.9784C65.4733 35.3259 65.3102 35.0813 64.3586 35.0813C63.407 35.0813 63.3255 35.4891 63.3255 35.9648V61.793C63.2983 62.2416 63.2167 63.4242 62.2108 64.3758C61.1097 65.3137 60.0358 65.1914 60.0358 65.1914C60.0358 65.1914 32.8483 65.1914 31.4889 65.1506C30.9723 65.0555 30.1295 64.8652 29.3139 63.7912C28.5527 62.7037 28.7022 61.3444 28.7022 61.3444V35.5163C28.7022 34.823 28.3488 34.5647 27.6147 34.5647C26.8806 34.5647 26.5 34.823 26.5 35.4347V61.8609ZM50.9688 37.3922C49.3375 37.7456 47.7063 37.9631 44.5797 40.9266C41.4531 43.9172 39.1422 43.7813 36.8313 43.6453C34.5203 43.5094 32.0734 41.3344 31.6656 40.7906C31.1627 40.2605 30.3063 40.6139 30.0344 40.9673C29.8033 41.3208 29.8033 41.9325 30.1975 42.4627C32.1006 44.2298 33.8678 45.5892 37.2663 45.8611C40.6647 46.1873 43.9272 44.6513 46.1022 42.4627C48.2772 40.2877 49.3647 39.8798 50.9959 39.608C54.9381 38.9827 57.2491 40.5323 58.6084 41.5111C60.1038 43.1423 60.5116 42.6802 60.9194 42.218C61.735 41.1441 60.5795 40.3148 59.2881 39.3633C56.5694 37.5961 53.9866 36.9164 50.9959 37.4602L50.9688 37.3922ZM37.375 48.1313C35.6078 48.1313 34.2484 49.6266 34.2484 51.5297C34.2484 53.4328 35.6078 54.9281 37.375 54.9281C39.1422 54.9281 40.5016 53.4328 40.5016 51.5297C40.5016 49.6266 39.1422 48.1313 37.375 48.1313ZM55.0469 49.3003C52.7359 49.3003 50.8328 51.3394 50.8328 53.7863C50.8328 56.2331 52.7359 58.2722 55.0469 58.2722C57.3578 58.2722 59.2609 56.2331 59.2609 53.7863C59.2609 51.3394 57.3578 49.3003 55.0469 49.3003ZM55.0469 51.4753C56.2431 51.4753 57.2219 52.522 57.2219 53.7863C57.2219 55.0777 56.2431 56.0972 55.0469 56.0972C53.8506 56.0972 52.8719 55.0505 52.8719 53.7863C52.8719 52.4948 53.8506 51.4753 55.0469 51.4753Z" fill="white"/>
</svg>
