<svg width="43" height="34" viewBox="0 0 43 34" fill="none" xmlns="http://www.w3.org/2000/svg">
<g clip-path="url(#clip0_76191_217)">
<path d="M2 8.50814C2 7.22559 2.77265 6.53402 4.31796 6.43343L10.2727 6.47115C10.6724 6.47115 10.9388 6.65976 11.072 7.03698C11.6848 8.92308 12.3709 10.5514 13.1302 11.922C13.8895 13.2925 14.882 14.8706 16.1076 16.6561C16.2142 16.8824 16.3874 16.9956 16.6271 16.9956C16.8136 16.9956 16.9602 16.9075 17.0668 16.7315L17.1866 16.3166L17.2266 9.79068C17.2266 9.33802 17.1134 9.03624 16.8869 8.88535C16.6604 8.73447 16.2408 8.6213 15.628 8.54586C15.1484 8.47041 14.9087 8.19379 14.9087 7.71598C14.9087 7.61538 14.922 7.53994 14.9486 7.48965C15.5081 5.85503 17.1067 5.03772 19.7444 5.03772L21.9824 5C22.9949 5 23.8341 5.23891 24.5002 5.71672C25.1663 6.19453 25.4993 6.94896 25.4993 7.98003V16.5429C25.6858 16.6686 25.859 16.7315 26.0189 16.7315C26.4185 16.7315 26.7649 16.5052 27.058 16.0525C29.9887 12.1797 31.574 9.5895 31.8138 8.2818C31.8138 8.25666 31.8404 8.19379 31.8937 8.0932C32.0802 7.71598 32.3866 7.38905 32.8129 7.11243C33.2392 6.8358 33.6122 6.64719 33.9319 6.5466C34.0385 6.4963 34.1584 6.47115 34.2916 6.47115H40.4862L40.8858 6.50888C41.4187 6.50888 41.8316 6.74778 42.1247 7.22559C42.2313 7.37648 42.3046 7.53994 42.3445 7.71598C42.3845 7.89201 42.4111 8.06805 42.4245 8.24408C42.4378 8.42012 42.4444 8.52071 42.4444 8.54586V8.80991C42.2579 9.84098 41.785 10.9412 41.0257 12.1106C40.2664 13.28 39.3005 14.5436 38.1282 15.9016C36.9559 17.2596 36.2232 18.1524 35.9302 18.5799C35.6904 18.8817 35.5705 19.1583 35.5705 19.4098C35.5705 19.6109 35.6771 19.8373 35.8902 20.0888L41.7251 27.0296C42.0448 27.432 42.2047 27.872 42.2047 28.3499C42.2047 28.9283 41.9649 29.4061 41.4853 29.7833C41.0057 30.1605 40.4329 30.3743 39.7668 30.4246L39.0874 30.4623H33.0127C32.9861 30.4623 32.9328 30.4686 32.8529 30.4811C32.7729 30.4937 32.7197 30.5 32.693 30.5C32.1069 30.5 31.5607 30.2611 31.0545 29.7833C30.868 29.5821 29.6157 28.0984 27.2978 25.3321C27.1645 25.1561 26.978 24.9926 26.7383 24.8417C26.6317 25.2441 26.4918 25.8225 26.3186 26.5769C26.1454 27.3314 26.0189 27.872 25.939 28.199L25.8191 28.8402C25.5526 29.7204 24.9931 30.2485 24.1405 30.4246L23.581 30.4623H19.6645C17.4531 30.4623 15.2484 29.5067 13.0503 27.5954C10.8522 25.6842 8.87396 23.2134 7.1155 20.1831C5.35705 17.1527 3.71849 13.6257 2.19982 9.60207C2.06661 9.27515 2 8.9105 2 8.50814ZM26.0189 18.2781C25.4594 18.2781 24.9532 18.1335 24.5002 17.8443C24.0473 17.5551 23.8208 17.159 23.8208 16.6561V7.98003C23.8208 7.47707 23.6876 7.11871 23.4212 6.90496C23.1547 6.6912 22.6885 6.58432 22.0224 6.58432L19.7444 6.65976C18.5987 6.65976 17.7328 6.84837 17.1467 7.22559C18.319 7.7537 18.9051 8.60873 18.9051 9.79068V16.4297C18.8519 17.0584 18.5854 17.5803 18.1058 17.9952C17.6263 18.4101 17.0934 18.6176 16.5072 18.6176C15.7079 18.6176 15.0952 18.253 14.6689 17.5237C12.5907 14.5562 11.0454 11.7396 10.0329 9.07396L9.67325 8.0932L4.35793 8.05547C4.01156 8.05547 3.8184 8.07433 3.77844 8.11206C3.73847 8.14978 3.71849 8.25666 3.71849 8.43269C3.71849 8.65902 3.74513 8.89793 3.79842 9.14941L4.63768 11.2618C6.87571 16.7189 9.30691 21.0192 11.9313 24.1627C14.5556 27.3062 17.1334 28.878 19.6645 28.878H23.661C23.8208 28.878 23.9407 28.834 24.0206 28.7459C24.1006 28.6579 24.1672 28.4882 24.2205 28.2367L24.3004 27.8595L25.0597 24.5399C25.2729 24.0873 25.4594 23.7855 25.6192 23.6346C25.9123 23.358 26.2587 23.2197 26.6583 23.2197C27.2978 23.2197 27.9505 23.5843 28.6166 24.3136L32.0136 28.3876C32.2268 28.7145 32.4532 28.878 32.693 28.878H39.2872C40.0865 28.878 40.4862 28.6894 40.4862 28.3121C40.4862 28.1864 40.4462 28.0607 40.3663 27.9349L34.5714 21.1072C34.1184 20.5791 33.892 20.0133 33.892 19.4098C33.892 18.8062 34.1051 18.2278 34.5314 17.6746C34.8778 17.1716 35.5505 16.3354 36.5496 15.1661C37.5487 13.9967 38.4213 12.9027 39.1673 11.8842C39.9133 10.8658 40.4062 9.94157 40.646 9.11169L40.7659 8.6213C40.7393 8.57101 40.726 8.48928 40.726 8.37611C40.726 8.26294 40.7126 8.16864 40.686 8.0932H34.4115C34.0119 8.24408 33.6921 8.47041 33.4523 8.77219L33.2126 9.48891C32.5465 11.2241 30.8013 13.9024 27.9772 17.5237C27.4177 18.0266 26.7649 18.2781 26.0189 18.2781Z" fill="#666666"/>
</g>
<defs>
<clipPath id="clip0_76191_217">
<rect width="42" height="33" fill="white" transform="translate(0.5 0.5)"/>
</clipPath>
</defs>
</svg>
