<svg width="91" height="91" viewBox="0 0 91 91" fill="none" xmlns="http://www.w3.org/2000/svg">
<rect x="0.25" y="0.75" width="90" height="90" fill="#68B738"/>
<g clip-path="url(#clip0_95_18)">
<path d="M64.5156 25.9005C64.3652 25.2255 63.797 24.75 63.1488 24.75C63.1459 24.75 63.1431 24.75 63.1403 24.75C55.7336 24.7995 37.7223 26.124 30.4506 37.32C26.6734 43.137 26.3486 50.6895 29.4845 59.7675C29.5084 59.838 29.5577 59.886 29.59 59.9505C28.4692 62.91 28.0347 64.8795 28.0234 64.935C27.8603 65.745 28.3455 66.543 29.1048 66.717C29.2033 66.7395 29.3017 66.75 29.4002 66.75C30.0484 66.75 30.632 66.2685 30.7741 65.565C30.8036 65.412 34.3867 50.0055 47.0542 40.998C47.7011 40.539 47.8755 39.6075 47.4438 38.9175C47.012 38.2275 46.1402 38.04 45.4933 38.502C38.3102 43.6095 33.8861 50.514 31.2845 55.986C29.4227 49.119 29.9106 43.4205 32.7639 39.0285C38.3791 30.3825 51.6977 28.2975 59.7372 27.8565C58.0075 30.558 56.1175 35.511 56.1175 44.25C56.1175 48.93 54.873 52.533 52.4205 54.96C48.4886 58.8465 42.1014 59.211 37.4298 58.836C36.6536 58.7685 35.98 59.3925 35.9209 60.219C35.8619 61.044 36.4427 61.764 37.2161 61.827C38.1512 61.9035 39.1497 61.95 40.1875 61.95C44.9434 61.95 50.4911 60.9555 54.3316 57.159C57.3831 54.1425 58.93 49.8 58.93 44.2515C58.93 30.603 63.7534 27.6075 63.7773 27.594C64.3623 27.2805 64.6689 26.5785 64.5156 25.9005Z" fill="white"/>
</g>
<defs>
<clipPath id="clip0_95_18">
<rect width="45" height="48" fill="white" transform="translate(22.75 21.75)"/>
</clipPath>
</defs>
</svg>
