<svg width="43" height="34" viewBox="0 0 43 34" fill="none" xmlns="http://www.w3.org/2000/svg">
<path fill-rule="evenodd" clip-rule="evenodd" d="M35.6912 5.22936C35.959 5.45332 36.0882 5.80235 36.0308 6.14672L32.0916 29.7821C32.0367 30.1117 31.8183 30.391 31.5117 30.5238C31.205 30.6567 30.852 30.625 30.5739 30.4396L18.7562 22.5611C18.5266 22.408 18.3717 22.1656 18.3294 21.8928C18.287 21.6201 18.3611 21.3421 18.5335 21.1265L22.4494 16.2316L15.9095 20.5915C15.6155 20.7876 15.2389 20.811 14.9229 20.653L7.0444 16.7137C6.69154 16.5373 6.47802 16.1673 6.5018 15.7735C6.52558 15.3797 6.78207 15.0381 7.15359 14.9055L34.7282 5.05739C35.057 4.93996 35.4234 5.00539 35.6912 5.22936ZM9.98939 15.9841L15.2925 18.6357L26.6347 11.0743C27.0387 10.8049 27.5787 10.8702 27.9069 11.2281C28.235 11.5861 28.2533 12.1297 27.95 12.5089L20.7425 21.5182L30.3992 27.9559L33.8125 7.47587L9.98939 15.9841Z" fill="#666666"/>
</svg>
