<svg width="91" height="91" viewBox="0 0 91 91" fill="none" xmlns="http://www.w3.org/2000/svg">
<rect x="0.25" y="0.75" width="90" height="90" fill="#68B738"/>
<path d="M34.807 23.25C33.2126 23.25 33.2126 25.6247 34.807 25.6247H44.7722V28.031C34.5678 28.68 26.5 37.3713 26.5 47.978C26.5 53.9938 29.1149 59.4238 33.2444 63.0808C33.9619 63.714 34.0576 64.838 33.4039 65.5346L31.1079 67.8618C29.9918 68.8908 31.65 70.4897 32.6545 69.3657L35.652 66.3103C36.1782 65.8037 36.9595 65.6771 37.6132 65.9937C40.191 67.2596 43.0253 67.926 45.9012 67.9424C48.777 67.9589 51.6189 67.325 54.2112 66.0887C54.849 65.7721 55.6462 65.8987 56.1564 66.4053L59.0583 69.3657C60.0787 70.3156 61.5456 68.8908 60.6209 67.8618L58.4524 65.6454C57.7828 64.9647 57.8784 63.8407 58.6119 63.1916C60.7876 61.2878 62.5279 58.9438 63.7159 56.3171C64.904 53.6903 65.5122 50.8416 65.4998 47.9622C65.4998 37.3554 57.3842 28.6484 47.1638 28.031V25.6247H57.129C58.7235 25.6247 58.7235 23.25 57.129 23.25H34.807ZM28.6525 47.9622C28.6525 38.1628 36.4174 30.2315 45.9999 30.2315C55.5665 30.2315 63.3314 38.1628 63.3314 47.9622C63.3314 57.7774 55.5665 65.7246 45.9999 65.7246C36.4333 65.7246 28.6525 57.7774 28.6525 47.9622V47.9622ZM44.7881 35.8198C44.7881 34.1734 47.2755 34.1734 47.2755 35.8198V48.7696C47.2755 49.1055 47.1411 49.4276 46.9019 49.6651C46.6626 49.9026 46.3382 50.0361 45.9999 50.0361C45.6813 50.0361 45.3754 49.9115 45.1486 49.6893C44.9218 49.4671 44.7923 49.1651 44.7881 48.8487V35.8198V35.8198ZM37.3262 39.7459C37.7871 39.7459 38.2292 39.5641 38.5551 39.2405C38.881 38.9169 39.0641 38.478 39.0641 38.0203C39.0641 37.5627 38.881 37.1238 38.5551 36.8002C38.2292 36.4765 37.7871 36.2947 37.3262 36.2947C36.896 36.3358 36.4967 36.5345 36.2061 36.8521C35.9155 37.1697 35.7545 37.5833 35.7545 38.0124C35.7545 38.4415 35.9155 38.8552 36.2061 39.1727C36.4967 39.4903 36.896 39.689 37.3262 39.7301V39.7459ZM54.6577 39.7459C55.1186 39.7459 55.5607 39.5641 55.8866 39.2405C56.2125 38.9169 56.3956 38.478 56.3956 38.0203C56.3956 37.5627 56.2125 37.1238 55.8866 36.8002C55.5607 36.4765 55.1186 36.2947 54.6577 36.2947C54.2275 36.3358 53.8282 36.5345 53.5376 36.8521C53.247 37.1697 53.086 37.5833 53.086 38.0124C53.086 38.4415 53.247 38.8552 53.5376 39.1727C53.8282 39.4903 54.2275 39.689 54.6577 39.7301V39.7459ZM39.0641 58.6323C39.0641 60.9278 35.5883 60.9278 35.5883 58.6323C35.5883 56.3368 39.0641 56.3368 39.0641 58.6323ZM45.9999 63.7932C46.241 63.8162 46.4844 63.7889 46.7143 63.7131C46.9441 63.6372 47.1555 63.5145 47.3348 63.3527C47.5141 63.191 47.6574 62.9938 47.7554 62.7739C47.8535 62.5539 47.9041 62.3161 47.9041 62.0755C47.9041 61.835 47.8535 61.5971 47.7554 61.3772C47.6574 61.1572 47.5141 60.9601 47.3348 60.7983C47.1555 60.6366 46.9441 60.5139 46.7143 60.438C46.4844 60.3621 46.241 60.3349 45.9999 60.3579C45.5697 60.3989 45.1704 60.5976 44.8798 60.9152C44.5892 61.2328 44.4282 61.6465 44.4282 62.0755C44.4282 62.5046 44.5892 62.9183 44.8798 63.2359C45.1704 63.5534 45.5697 63.7521 45.9999 63.7932V63.7932ZM33.8663 48.2155C33.8895 48.4549 33.862 48.6965 33.7856 48.9248C33.7092 49.153 33.5856 49.3629 33.4227 49.5409C33.2598 49.7189 33.0612 49.8612 32.8397 49.9585C32.6181 50.0559 32.3786 50.1062 32.1363 50.1062C31.8941 50.1062 31.6545 50.0559 31.433 49.9585C31.2114 49.8612 31.0129 49.7189 30.85 49.5409C30.6871 49.3629 30.5635 49.153 30.4871 48.9248C30.4107 48.6965 30.3832 48.4549 30.4064 48.2155C30.4477 47.7884 30.6478 47.3919 30.9677 47.1034C31.2875 46.8149 31.7042 46.655 32.1363 46.655C32.5685 46.655 32.9851 46.8149 33.305 47.1034C33.6248 47.3919 33.8249 47.7884 33.8663 48.2155V48.2155ZM59.8555 49.9411C60.0967 49.9641 60.34 49.9368 60.5699 49.8609C60.7998 49.7851 61.0111 49.6623 61.1904 49.5006C61.3697 49.3389 61.513 49.1417 61.611 48.9217C61.7091 48.7018 61.7597 48.4639 61.7597 48.2234C61.7597 47.9829 61.7091 47.745 61.611 47.5251C61.513 47.3051 61.3697 47.1079 61.1904 46.9462C61.0111 46.7845 60.7998 46.6617 60.5699 46.5859C60.34 46.51 60.0967 46.4827 59.8555 46.5057C59.4254 46.5468 59.026 46.7455 58.7355 47.0631C58.4449 47.3807 58.2839 47.7943 58.2839 48.2234C58.2839 48.6525 58.4449 49.0662 58.7355 49.3837C59.026 49.7013 59.4254 49.9 59.8555 49.9411V49.9411ZM56.3956 58.6481C56.3956 60.9278 52.9197 60.9278 52.9197 58.6323C52.9197 56.3368 56.3956 56.3368 56.3956 58.6323V58.6481Z" fill="white"/>
</svg>
