<svg width="91" height="91" viewBox="0 0 91 91" fill="none" xmlns="http://www.w3.org/2000/svg">
<rect x="0.25" y="0.75" width="90" height="90" fill="#68B738"/>
<path fill-rule="evenodd" clip-rule="evenodd" d="M54.426 23.3642C54.9865 23.1321 55.6317 23.2604 56.0607 23.6894C57.4234 25.0521 59.2057 28.006 60.6489 32.5662C62.1059 37.1706 63.25 43.5122 63.25 51.75C63.25 52.5785 62.5784 53.25 61.75 53.25H56.5V66.75C56.5 67.5785 55.8284 68.25 55 68.25C54.1716 68.25 53.5 67.5785 53.5 66.75V24.75C53.5 24.1434 53.8655 23.5964 54.426 23.3642ZM56.5 50.25H60.2367C60.1079 43.0254 59.0576 37.4813 57.7886 33.4714C57.3711 32.1519 56.9328 31.0073 56.5 30.0284V50.25Z" fill="white"/>
<path fill-rule="evenodd" clip-rule="evenodd" d="M35.5 23.25C36.3284 23.25 37 23.9216 37 24.75V66.75C37 67.5784 36.3284 68.25 35.5 68.25C34.6716 68.25 34 67.5784 34 66.75V24.75C34 23.9216 34.6716 23.25 35.5 23.25Z" fill="white"/>
<path fill-rule="evenodd" clip-rule="evenodd" d="M28.75 23.25C29.5784 23.25 30.25 23.9216 30.25 24.75V33C30.25 33.8353 30.538 34.9728 31.3013 35.8748C32.02 36.7242 33.2717 37.5 35.4999 37.5C36.3283 37.5 36.9999 38.1716 36.9999 39C36.9999 39.8284 36.3283 40.5 35.4999 40.5C32.4782 40.5 30.3549 39.4008 29.0112 37.8127C27.712 36.2772 27.25 34.4147 27.25 33V24.75C27.25 23.9216 27.9216 23.25 28.75 23.25Z" fill="white"/>
<path fill-rule="evenodd" clip-rule="evenodd" d="M42.25 23.25C41.4216 23.25 40.75 23.9216 40.75 24.75V33C40.75 33.8353 40.462 34.9728 39.6987 35.8748C38.98 36.7242 37.7281 37.5 35.4999 37.5C34.6715 37.5 34.0001 38.1716 34.0001 39C34.0001 39.8284 34.6715 40.5 35.4999 40.5C38.5216 40.5 40.6451 39.4008 41.9888 37.8127C43.288 36.2772 43.75 34.4147 43.75 33V24.75C43.75 23.9216 43.0784 23.25 42.25 23.25Z" fill="white"/>
</svg>
