<svg width="37" height="29" viewBox="0 0 37 29" fill="none" xmlns="http://www.w3.org/2000/svg">
<path d="M24.2764 13.6891L16.4218 8.45276C16.2739 8.35536 16.1024 8.29977 15.9255 8.29189C15.7486 8.28401 15.5729 8.32412 15.4169 8.40797C15.2609 8.49183 15.1305 8.61631 15.0395 8.76823C14.9485 8.92015 14.9003 9.09385 14.9 9.27094V19.7437C14.9002 19.9222 14.9491 20.0972 15.0413 20.2501C15.1336 20.4029 15.2658 20.5276 15.4236 20.6109C15.5787 20.6946 15.7536 20.7343 15.9296 20.7256C16.1055 20.7169 16.2757 20.6603 16.4218 20.5618L24.2764 15.3255C24.4114 15.2359 24.5221 15.1143 24.5988 14.9716C24.6754 14.8288 24.7155 14.6693 24.7155 14.5073C24.7155 14.3453 24.6754 14.1858 24.5988 14.043C24.5221 13.9003 24.4114 13.7787 24.2764 13.6891ZM16.8636 17.9109V11.1037L21.9691 14.5073L16.8636 17.9109ZM35.5836 5.06548C35.4412 4.5132 35.1697 4.00266 34.7913 3.57591C34.4129 3.14916 33.9385 2.81842 33.4073 2.61094C27.8273 0.467301 18.8764 0.500029 18.5 0.500029C18.1236 0.500029 9.17273 0.467301 3.59273 2.61094C3.06146 2.81842 2.5871 3.14916 2.20872 3.57591C1.83033 4.00266 1.55876 4.5132 1.41636 5.06548C0.990909 6.66912 0.5 9.61457 0.5 14.5073C0.5 19.4 0.990909 22.3455 1.41636 23.9491C1.55876 24.5014 1.83033 25.0119 2.20872 25.4387C2.5871 25.8654 3.06146 26.1962 3.59273 26.4037C9.17273 28.5473 18.1236 28.5146 18.5 28.5146H18.6145C19.7436 28.5146 28.0891 28.4491 33.4073 26.4037C33.9385 26.1962 34.4129 25.8654 34.7913 25.4387C35.1697 25.0119 35.4412 24.5014 35.5836 23.9491C36.0091 22.3455 36.5 19.4 36.5 14.5073C36.5 9.61457 36.0091 6.66912 35.5836 5.06548ZM33.6855 23.4582C33.6211 23.7079 33.4986 23.9389 33.3279 24.1323C33.1573 24.3256 32.9434 24.476 32.7036 24.5709C27.4673 26.5837 18.5982 26.5509 18.5 26.5509C18.4018 26.5509 9.53273 26.5837 4.29636 24.5709C4.05661 24.476 3.84269 24.3256 3.67207 24.1323C3.50144 23.9389 3.37894 23.7079 3.31455 23.4582C2.92182 21.9528 2.46364 19.1873 2.46364 14.5073C2.46364 9.8273 2.92182 7.06185 3.31455 5.55639C3.37894 5.30667 3.50144 5.07571 3.67207 4.88233C3.84269 4.68896 4.05661 4.53865 4.29636 4.44367C9.53273 2.43094 18.4018 2.46367 18.5 2.46367C18.5982 2.46367 27.4673 2.43094 32.7036 4.44367C32.9434 4.53865 33.1573 4.68896 33.3279 4.88233C33.4986 5.07571 33.6211 5.30667 33.6855 5.55639C34.0782 7.06185 34.5364 9.8273 34.5364 14.5073C34.5364 19.1873 34.0782 21.9528 33.6855 23.4582Z" fill="#666666"/>
</svg>
