<svg width="152" height="28" viewBox="0 0 152 28" fill="none" xmlns="http://www.w3.org/2000/svg">
<g clip-path="url(#clip0_135_3354)">
<path d="M1.89672 25.5577C0.554317 23.6642 -0.112064 21.3941 7.68259e-06 19.0962V9.51923C-0.162556 7.1966 0.462099 4.88619 1.77818 2.94231C3.08217 1.44231 5.09743 0.75 8.06104 0.75C11.0247 0.75 12.9214 1.44231 14.1068 2.71154C15.3938 4.31911 16.0269 6.33204 15.885 8.36538V10.6731H10.0763V8.01923C10.1232 7.23433 10.0021 6.4485 9.72067 5.71154C9.57023 5.41406 9.3318 5.1672 9.03604 5.0027C8.74028 4.8382 8.40072 4.76359 8.06104 4.78846C7.23123 4.78846 6.63851 5.01923 6.40142 5.59615C6.13324 6.41599 6.01292 7.27483 6.04578 8.13462V20.4808C5.98318 21.3149 6.14669 22.1505 6.51996 22.9038C6.75705 23.4808 7.34977 23.7115 8.17959 23.7115C9.0094 23.7115 9.48358 23.4808 9.72067 22.9038C9.99019 22.1241 10.1107 21.3028 10.0763 20.4808V17.7115H15.885V20.0192C16.0055 22.0858 15.3762 24.1278 14.1068 25.7885C12.9214 27.1731 10.9061 27.8654 8.06104 27.8654C5.21597 27.75 3.08217 27.0577 1.89672 25.5577Z" fill="#111111"/>
<path d="M22.8791 1.09607H29.6362L34.615 27.4038H29.162L28.2136 21.8653H24.3017L23.3533 27.4038H17.7817L22.8791 1.09607ZM27.7395 18.4038L26.3169 8.13453L24.8944 18.4038H27.7395Z" fill="#111111"/>
<path d="M38.7641 5.48068H34.7335V1.09607H48.8403V5.3653H44.8098V27.4038H38.7641V5.48068Z" fill="#111111"/>
<path d="M59.6279 1.09607H70.0599V3.8653H63.3028V12.5191H68.7559V15.173H63.3028V24.8653H70.0599V27.5191H59.5094V1.09607H59.6279Z" fill="#111111"/>
<path d="M73.142 1.09607H75.75L83.4554 18.5191V1.09607H86.5375V27.4038H84.1666L76.3427 9.40376V27.4038H73.142V1.09607Z" fill="#111111"/>
<path d="M90.0939 1.09607H100.526V3.8653H93.7688V12.5191H99.2218V15.173H93.7688V24.8653H100.526V27.5191H90.0939V1.09607Z" fill="#111111"/>
<path d="M103.608 1.09623H109.061C111.206 0.952005 113.338 1.52161 115.107 2.71162C116.411 3.75008 117.004 5.59623 117.004 8.01931C117.004 11.3655 115.937 13.4424 113.684 14.1347L117.478 27.2885H113.803L110.247 14.9424H107.283V27.2885H103.489V1.09623H103.608ZM108.824 12.4039C110.046 12.5019 111.264 12.1749 112.262 11.4808C112.973 10.9039 113.329 9.75008 113.329 8.01931C113.362 7.15952 113.241 6.30068 112.973 5.48085C112.706 4.89256 112.248 4.40603 111.669 4.09623C110.853 3.73409 109.956 3.57548 109.061 3.63469H107.401V12.2885H108.824V12.4039Z" fill="#111111"/>
<path d="M121.745 25.4423C120.513 23.4249 119.935 21.0925 120.086 18.75V9.9808C120.056 8.30869 120.256 6.64022 120.678 5.01926C121.075 3.80797 121.866 2.75505 122.931 2.01926C124.254 1.25665 125.781 0.895123 127.317 0.980795C129.806 0.980795 131.584 1.55772 132.651 2.82695C133.879 4.50289 134.466 6.54359 134.311 8.59618V9.51926H130.755V8.71157C130.76 7.74521 130.681 6.78018 130.518 5.82695C130.418 5.22458 130.077 4.68525 129.569 4.32695C128.903 3.90126 128.112 3.69871 127.317 3.75003C126.467 3.69701 125.626 3.94267 124.946 4.44233C124.667 4.67104 124.439 4.95275 124.276 5.27019C124.113 5.58764 124.018 5.93414 123.998 6.28849C123.841 7.32001 123.762 8.3612 123.761 9.40387V19.2116C123.673 20.7058 123.916 22.2009 124.472 23.5962C124.946 24.5193 125.894 24.8654 127.317 24.8654C127.879 24.9335 128.448 24.8384 128.955 24.5921C129.461 24.3457 129.881 23.959 130.162 23.4808C130.788 22.0217 131.072 20.4448 130.992 18.8654V17.0193H127.554V14.3654H134.43V27.4039H132.059L131.703 24.4039C131.392 25.4093 130.745 26.2847 129.864 26.891C128.984 27.4973 127.92 27.7997 126.843 27.75C125.863 27.8061 124.885 27.6246 123.995 27.2218C123.105 26.8191 122.332 26.2076 121.745 25.4423V25.4423Z" fill="#111111"/>
<path d="M142.016 18.1731L136.208 1.21161H139.764L143.913 13.9039L147.944 1.21161H151.5L145.691 18.1731V27.4039H142.135V18.1731H142.016Z" fill="#111111"/>
</g>
<defs>
<clipPath id="clip0_135_3354">
<rect width="151.5" height="27" fill="white" transform="translate(0 0.75)"/>
</clipPath>
</defs>
</svg>
