<svg width="41" height="52" viewBox="0 0 41 52" fill="none" xmlns="http://www.w3.org/2000/svg">
<g clip-path="url(#clip0_95_230)">
<path d="M20.9639 0.773631L20.75 0.75L0.5 2.861V39.7693L20.75 51.75L41 39.7693V2.861L20.9639 0.773631ZM38.3516 38.2727L20.75 48.6859L3.14842 38.2727V23.1439L20.6761 33.5177L20.7051 35.3977L8.68027 28.2822L8.66443 30.1202L20.7342 37.3327L20.7632 39.2626L8.69611 32.1261L8.68027 33.9641L20.75 41.1766L32.9359 33.9273V32.0894V26.1135L38.3648 22.8892L38.3516 38.2727ZM38.3516 20.9279L33.5221 23.7478L31.2988 25.0606L20.6998 18.7801L20.684 20.618L29.7435 25.9769L29.6643 26.0242L29.4689 26.1371L28.1804 26.8749L20.6998 22.4534L20.684 24.2913L26.5881 27.7834L25.1887 28.6971L25.157 28.7155L20.6998 26.103L20.684 27.9409L23.6044 29.6423L20.6233 31.4225L3.19595 21.1143L20.6523 10.6775L38.3516 20.9279ZM38.3516 19.0899L20.6602 8.71612L3.14842 19.0794V5.23455L20.75 3.39662L38.3516 5.23455V19.0899Z" fill="#666666"/>
</g>
<defs>
<clipPath id="clip0_95_230">
<rect width="40.5" height="51" fill="white" transform="translate(0.5 0.75)"/>
</clipPath>
</defs>
</svg>
