<svg xmlns="http://www.w3.org/2000/svg">
<symbol  viewBox="0 0 152 28" id="caption-logo">
      <g clip-path="url(#clip0_135_3354)">
        <path d="M1.89672 25.5577C0.554317 23.6642 -0.112064 21.3941 7.68259e-06 19.0962V9.51923C-0.162556 7.1966 0.462099 4.88619 1.77818 2.94231C3.08217 1.44231 5.09743 0.75 8.06104 0.75C11.0247 0.75 12.9214 1.44231 14.1068 2.71154C15.3938 4.31911 16.0269 6.33204 15.885 8.36538V10.6731H10.0763V8.01923C10.1232 7.23433 10.0021 6.4485 9.72067 5.71154C9.57023 5.41406 9.3318 5.1672 9.03604 5.0027C8.74028 4.8382 8.40072 4.76359 8.06104 4.78846C7.23123 4.78846 6.63851 5.01923 6.40142 5.59615C6.13324 6.41599 6.01292 7.27483 6.04578 8.13462V20.4808C5.98318 21.3149 6.14669 22.1505 6.51996 22.9038C6.75705 23.4808 7.34977 23.7115 8.17959 23.7115C9.0094 23.7115 9.48358 23.4808 9.72067 22.9038C9.99019 22.1241 10.1107 21.3028 10.0763 20.4808V17.7115H15.885V20.0192C16.0055 22.0858 15.3762 24.1278 14.1068 25.7885C12.9214 27.1731 10.9061 27.8654 8.06104 27.8654C5.21597 27.75 3.08217 27.0577 1.89672 25.5577Z"/>
        <path d="M22.8791 1.09607H29.6362L34.615 27.4038H29.162L28.2136 21.8653H24.3017L23.3533 27.4038H17.7817L22.8791 1.09607ZM27.7395 18.4038L26.3169 8.13453L24.8944 18.4038H27.7395Z" />
        <path d="M38.7641 5.48068H34.7335V1.09607H48.8403V5.3653H44.8098V27.4038H38.7641V5.48068Z"/>
        <path d="M59.6279 1.09607H70.0599V3.8653H63.3028V12.5191H68.7559V15.173H63.3028V24.8653H70.0599V27.5191H59.5094V1.09607H59.6279Z" />
        <path d="M73.142 1.09607H75.75L83.4554 18.5191V1.09607H86.5375V27.4038H84.1666L76.3427 9.40376V27.4038H73.142V1.09607Z" />
        <path d="M90.0939 1.09607H100.526V3.8653H93.7688V12.5191H99.2218V15.173H93.7688V24.8653H100.526V27.5191H90.0939V1.09607Z" />
        <path d="M103.608 1.09623H109.061C111.206 0.952005 113.338 1.52161 115.107 2.71162C116.411 3.75008 117.004 5.59623 117.004 8.01931C117.004 11.3655 115.937 13.4424 113.684 14.1347L117.478 27.2885H113.803L110.247 14.9424H107.283V27.2885H103.489V1.09623H103.608ZM108.824 12.4039C110.046 12.5019 111.264 12.1749 112.262 11.4808C112.973 10.9039 113.329 9.75008 113.329 8.01931C113.362 7.15952 113.241 6.30068 112.973 5.48085C112.706 4.89256 112.248 4.40603 111.669 4.09623C110.853 3.73409 109.956 3.57548 109.061 3.63469H107.401V12.2885H108.824V12.4039Z" />
        <path d="M121.745 25.4423C120.513 23.4249 119.935 21.0925 120.086 18.75V9.9808C120.056 8.30869 120.256 6.64022 120.678 5.01926C121.075 3.80797 121.866 2.75505 122.931 2.01926C124.254 1.25665 125.781 0.895123 127.317 0.980795C129.806 0.980795 131.584 1.55772 132.651 2.82695C133.879 4.50289 134.466 6.54359 134.311 8.59618V9.51926H130.755V8.71157C130.76 7.74521 130.681 6.78018 130.518 5.82695C130.418 5.22458 130.077 4.68525 129.569 4.32695C128.903 3.90126 128.112 3.69871 127.317 3.75003C126.467 3.69701 125.626 3.94267 124.946 4.44233C124.667 4.67104 124.439 4.95275 124.276 5.27019C124.113 5.58764 124.018 5.93414 123.998 6.28849C123.841 7.32001 123.762 8.3612 123.761 9.40387V19.2116C123.673 20.7058 123.916 22.2009 124.472 23.5962C124.946 24.5193 125.894 24.8654 127.317 24.8654C127.879 24.9335 128.448 24.8384 128.955 24.5921C129.461 24.3457 129.881 23.959 130.162 23.4808C130.788 22.0217 131.072 20.4448 130.992 18.8654V17.0193H127.554V14.3654H134.43V27.4039H132.059L131.703 24.4039C131.392 25.4093 130.745 26.2847 129.864 26.891C128.984 27.4973 127.92 27.7997 126.843 27.75C125.863 27.8061 124.885 27.6246 123.995 27.2218C123.105 26.8191 122.332 26.2076 121.745 25.4423V25.4423Z"/>
        <path d="M142.016 18.1731L136.208 1.21161H139.764L143.913 13.9039L147.944 1.21161H151.5L145.691 18.1731V27.4039H142.135V18.1731H142.016Z" >
        </g>
    </symbol>
    <symbol viewBox="0 0 43 34" id="socials-icon-vk">
      <g clip-path="url(#clip0_76191_217)">
        <path d="M2 8.50814C2 7.22559 2.77265 6.53402 4.31796 6.43343L10.2727 6.47115C10.6724 6.47115 10.9388 6.65976 11.072 7.03698C11.6848 8.92308 12.3709 10.5514 13.1302 11.922C13.8895 13.2925 14.882 14.8706 16.1076 16.6561C16.2142 16.8824 16.3874 16.9956 16.6271 16.9956C16.8136 16.9956 16.9602 16.9075 17.0668 16.7315L17.1866 16.3166L17.2266 9.79068C17.2266 9.33802 17.1134 9.03624 16.8869 8.88535C16.6604 8.73447 16.2408 8.6213 15.628 8.54586C15.1484 8.47041 14.9087 8.19379 14.9087 7.71598C14.9087 7.61538 14.922 7.53994 14.9486 7.48965C15.5081 5.85503 17.1067 5.03772 19.7444 5.03772L21.9824 5C22.9949 5 23.8341 5.23891 24.5002 5.71672C25.1663 6.19453 25.4993 6.94896 25.4993 7.98003V16.5429C25.6858 16.6686 25.859 16.7315 26.0189 16.7315C26.4185 16.7315 26.7649 16.5052 27.058 16.0525C29.9887 12.1797 31.574 9.5895 31.8138 8.2818C31.8138 8.25666 31.8404 8.19379 31.8937 8.0932C32.0802 7.71598 32.3866 7.38905 32.8129 7.11243C33.2392 6.8358 33.6122 6.64719 33.9319 6.5466C34.0385 6.4963 34.1584 6.47115 34.2916 6.47115H40.4862L40.8858 6.50888C41.4187 6.50888 41.8316 6.74778 42.1247 7.22559C42.2313 7.37648 42.3046 7.53994 42.3445 7.71598C42.3845 7.89201 42.4111 8.06805 42.4245 8.24408C42.4378 8.42012 42.4444 8.52071 42.4444 8.54586V8.80991C42.2579 9.84098 41.785 10.9412 41.0257 12.1106C40.2664 13.28 39.3005 14.5436 38.1282 15.9016C36.9559 17.2596 36.2232 18.1524 35.9302 18.5799C35.6904 18.8817 35.5705 19.1583 35.5705 19.4098C35.5705 19.6109 35.6771 19.8373 35.8902 20.0888L41.7251 27.0296C42.0448 27.432 42.2047 27.872 42.2047 28.3499C42.2047 28.9283 41.9649 29.4061 41.4853 29.7833C41.0057 30.1605 40.4329 30.3743 39.7668 30.4246L39.0874 30.4623H33.0127C32.9861 30.4623 32.9328 30.4686 32.8529 30.4811C32.7729 30.4937 32.7197 30.5 32.693 30.5C32.1069 30.5 31.5607 30.2611 31.0545 29.7833C30.868 29.5821 29.6157 28.0984 27.2978 25.3321C27.1645 25.1561 26.978 24.9926 26.7383 24.8417C26.6317 25.2441 26.4918 25.8225 26.3186 26.5769C26.1454 27.3314 26.0189 27.872 25.939 28.199L25.8191 28.8402C25.5526 29.7204 24.9931 30.2485 24.1405 30.4246L23.581 30.4623H19.6645C17.4531 30.4623 15.2484 29.5067 13.0503 27.5954C10.8522 25.6842 8.87396 23.2134 7.1155 20.1831C5.35705 17.1527 3.71849 13.6257 2.19982 9.60207C2.06661 9.27515 2 8.9105 2 8.50814ZM26.0189 18.2781C25.4594 18.2781 24.9532 18.1335 24.5002 17.8443C24.0473 17.5551 23.8208 17.159 23.8208 16.6561V7.98003C23.8208 7.47707 23.6876 7.11871 23.4212 6.90496C23.1547 6.6912 22.6885 6.58432 22.0224 6.58432L19.7444 6.65976C18.5987 6.65976 17.7328 6.84837 17.1467 7.22559C18.319 7.7537 18.9051 8.60873 18.9051 9.79068V16.4297C18.8519 17.0584 18.5854 17.5803 18.1058 17.9952C17.6263 18.4101 17.0934 18.6176 16.5072 18.6176C15.7079 18.6176 15.0952 18.253 14.6689 17.5237C12.5907 14.5562 11.0454 11.7396 10.0329 9.07396L9.67325 8.0932L4.35793 8.05547C4.01156 8.05547 3.8184 8.07433 3.77844 8.11206C3.73847 8.14978 3.71849 8.25666 3.71849 8.43269C3.71849 8.65902 3.74513 8.89793 3.79842 9.14941L4.63768 11.2618C6.87571 16.7189 9.30691 21.0192 11.9313 24.1627C14.5556 27.3062 17.1334 28.878 19.6645 28.878H23.661C23.8208 28.878 23.9407 28.834 24.0206 28.7459C24.1006 28.6579 24.1672 28.4882 24.2205 28.2367L24.3004 27.8595L25.0597 24.5399C25.2729 24.0873 25.4594 23.7855 25.6192 23.6346C25.9123 23.358 26.2587 23.2197 26.6583 23.2197C27.2978 23.2197 27.9505 23.5843 28.6166 24.3136L32.0136 28.3876C32.2268 28.7145 32.4532 28.878 32.693 28.878H39.2872C40.0865 28.878 40.4862 28.6894 40.4862 28.3121C40.4862 28.1864 40.4462 28.0607 40.3663 27.9349L34.5714 21.1072C34.1184 20.5791 33.892 20.0133 33.892 19.4098C33.892 18.8062 34.1051 18.2278 34.5314 17.6746C34.8778 17.1716 35.5505 16.3354 36.5496 15.1661C37.5487 13.9967 38.4213 12.9027 39.1673 11.8842C39.9133 10.8658 40.4062 9.94157 40.646 9.11169L40.7659 8.6213C40.7393 8.57101 40.726 8.48928 40.726 8.37611C40.726 8.26294 40.7126 8.16864 40.686 8.0932H34.4115C34.0119 8.24408 33.6921 8.47041 33.4523 8.77219L33.2126 9.48891C32.5465 11.2241 30.8013 13.9024 27.9772 17.5237C27.4177 18.0266 26.7649 18.2781 26.0189 18.2781Z"/>
        </g>
        <defs>
        <clipPath id="clip0_76191_217">
        <rect width="42" height="33" fill="white" transform="translate(0.5 0.5)"/>
        </clipPath>
        </defs>
    </symbol>
    <symbol viewBox="0 0 37 29" id="socials-icon-youtube" >
      <path d="M24.2764 13.6891L16.4218 8.45276C16.2739 8.35536 16.1024 8.29977 15.9255 8.29189C15.7486 8.28401 15.5729 8.32412 15.4169 8.40797C15.2609 8.49183 15.1305 8.61631 15.0395 8.76823C14.9485 8.92015 14.9003 9.09385 14.9 9.27094V19.7437C14.9002 19.9222 14.9491 20.0972 15.0413 20.2501C15.1336 20.4029 15.2658 20.5276 15.4236 20.6109C15.5787 20.6946 15.7536 20.7343 15.9296 20.7256C16.1055 20.7169 16.2757 20.6603 16.4218 20.5618L24.2764 15.3255C24.4114 15.2359 24.5221 15.1143 24.5988 14.9716C24.6754 14.8288 24.7155 14.6693 24.7155 14.5073C24.7155 14.3453 24.6754 14.1858 24.5988 14.043C24.5221 13.9003 24.4114 13.7787 24.2764 13.6891ZM16.8636 17.9109V11.1037L21.9691 14.5073L16.8636 17.9109ZM35.5836 5.06548C35.4412 4.5132 35.1697 4.00266 34.7913 3.57591C34.4129 3.14916 33.9385 2.81842 33.4073 2.61094C27.8273 0.467301 18.8764 0.500029 18.5 0.500029C18.1236 0.500029 9.17273 0.467301 3.59273 2.61094C3.06146 2.81842 2.5871 3.14916 2.20872 3.57591C1.83033 4.00266 1.55876 4.5132 1.41636 5.06548C0.990909 6.66912 0.5 9.61457 0.5 14.5073C0.5 19.4 0.990909 22.3455 1.41636 23.9491C1.55876 24.5014 1.83033 25.0119 2.20872 25.4387C2.5871 25.8654 3.06146 26.1962 3.59273 26.4037C9.17273 28.5473 18.1236 28.5146 18.5 28.5146H18.6145C19.7436 28.5146 28.0891 28.4491 33.4073 26.4037C33.9385 26.1962 34.4129 25.8654 34.7913 25.4387C35.1697 25.0119 35.4412 24.5014 35.5836 23.9491C36.0091 22.3455 36.5 19.4 36.5 14.5073C36.5 9.61457 36.0091 6.66912 35.5836 5.06548ZM33.6855 23.4582C33.6211 23.7079 33.4986 23.9389 33.3279 24.1323C33.1573 24.3256 32.9434 24.476 32.7036 24.5709C27.4673 26.5837 18.5982 26.5509 18.5 26.5509C18.4018 26.5509 9.53273 26.5837 4.29636 24.5709C4.05661 24.476 3.84269 24.3256 3.67207 24.1323C3.50144 23.9389 3.37894 23.7079 3.31455 23.4582C2.92182 21.9528 2.46364 19.1873 2.46364 14.5073C2.46364 9.8273 2.92182 7.06185 3.31455 5.55639C3.37894 5.30667 3.50144 5.07571 3.67207 4.88233C3.84269 4.68896 4.05661 4.53865 4.29636 4.44367C9.53273 2.43094 18.4018 2.46367 18.5 2.46367C18.5982 2.46367 27.4673 2.43094 32.7036 4.44367C32.9434 4.53865 33.1573 4.68896 33.3279 4.88233C33.4986 5.07571 33.6211 5.30667 33.6855 5.55639C34.0782 7.06185 34.5364 9.8273 34.5364 14.5073C34.5364 19.1873 34.0782 21.9528 33.6855 23.4582Z" />
    </symbol>
<symbol viewBox="0 0 43 34" id="socials-icon-tg">
  <path fill-rule="evenodd" clip-rule="evenodd" d="M35.6912 5.22936C35.959 5.45332 36.0882 5.80235 36.0308 6.14672L32.0916 29.7821C32.0367 30.1117 31.8183 30.391 31.5117 30.5238C31.205 30.6567 30.852 30.625 30.5739 30.4396L18.7562 22.5611C18.5266 22.408 18.3717 22.1656 18.3294 21.8928C18.287 21.6201 18.3611 21.3421 18.5335 21.1265L22.4494 16.2316L15.9095 20.5915C15.6155 20.7876 15.2389 20.811 14.9229 20.653L7.0444 16.7137C6.69154 16.5373 6.47802 16.1673 6.5018 15.7735C6.52558 15.3797 6.78207 15.0381 7.15359 14.9055L34.7282 5.05739C35.057 4.93996 35.4234 5.00539 35.6912 5.22936ZM9.98939 15.9841L15.2925 18.6357L26.6347 11.0743C27.0387 10.8049 27.5787 10.8702 27.9069 11.2281C28.235 11.5861 28.2533 12.1297 27.95 12.5089L20.7425 21.5182L30.3992 27.9559L33.8125 7.47587L9.98939 15.9841Z"/>
</symbol>
<symbol viewBox="0 0 41 52" id="logo-academy">
  <g clip-path="url(#clip0_95_230)">
    <path d="M20.9639 0.773631L20.75 0.75L0.5 2.861V39.7693L20.75 51.75L41 39.7693V2.861L20.9639 0.773631ZM38.3516 38.2727L20.75 48.6859L3.14842 38.2727V23.1439L20.6761 33.5177L20.7051 35.3977L8.68027 28.2822L8.66443 30.1202L20.7342 37.3327L20.7632 39.2626L8.69611 32.1261L8.68027 33.9641L20.75 41.1766L32.9359 33.9273V32.0894V26.1135L38.3648 22.8892L38.3516 38.2727ZM38.3516 20.9279L33.5221 23.7478L31.2988 25.0606L20.6998 18.7801L20.684 20.618L29.7435 25.9769L29.6643 26.0242L29.4689 26.1371L28.1804 26.8749L20.6998 22.4534L20.684 24.2913L26.5881 27.7834L25.1887 28.6971L25.157 28.7155L20.6998 26.103L20.684 27.9409L23.6044 29.6423L20.6233 31.4225L3.19595 21.1143L20.6523 10.6775L38.3516 20.9279ZM38.3516 19.0899L20.6602 8.71612L3.14842 19.0794V5.23455L20.75 3.39662L38.3516 5.23455V19.0899Z"/>
    </g>
    <defs>
    <clipPath id="clip0_95_230">
    <rect width="40.5" height="51" transform="translate(0.5 0.75)"/>
    </clipPath>
    </defs>
</symbol>
  </svg>
