<svg width="25" height="17" viewBox="0 0 25 17" fill="none" xmlns="http://www.w3.org/2000/svg">
<path d="M22.3368 2.32967C22.3368 2.32967 19.0548 1.07843 17.8488 0.739554C17.2825 0.489662 16.6572 0.408419 16.0466 0.505418C15.4361 0.602417 14.8658 0.873607 14.4031 1.28697C13.931 1.70388 13.5536 2.21849 13.2964 2.79577C13.0393 3.37304 12.9084 3.99944 12.9128 4.6323C13.0949 5.03616 13.2335 5.45855 13.3263 5.89223C13.3694 6.30931 12.2926 6.26586 11.6034 6.26586C10.9143 6.26586 10.8109 5.01462 11.3536 3.54615C11.777 2.417 12.3018 1.32923 12.9214 0.296406C8.22664 2.76413 0 8.46422 0 8.46422C2.35316 8.32108 4.71429 8.39087 7.0551 8.67276C11.5776 9.13329 11.3622 12.7306 11.3622 12.7306C12.9529 12.2883 14.574 11.9659 16.2121 11.7661C18.0383 11.6445 18.1675 13.6082 18.1675 13.6082L18.6241 16.9622C19.3173 16.2057 20.0819 15.5189 20.9069 14.9116C21.9703 14.0529 23.3243 13.6476 24.6799 13.782L22.3368 2.32967Z" fill="#F06351"/>
</svg>
