<svg width="168" height="22" viewBox="0 0 168 22" fill="none" xmlns="http://www.w3.org/2000/svg">
<path d="M14.628 0.553999V17.75H12.3V9.926H3.024V17.75H0.696V0.553999H3.024V8.222H12.3V0.553999H14.628ZM30.6521 2.51H25.0841V17.75H22.7681V2.51H17.1881V0.553999H30.6521V2.51ZM51.0958 0.553999V17.75H49.0558V5.114C49.0558 4.946 49.0598 4.766 49.0678 4.574C49.0838 4.382 49.0998 4.186 49.1158 3.986L43.2118 14.738C43.0278 15.098 42.7478 15.278 42.3718 15.278H42.0358C41.6598 15.278 41.3798 15.098 41.1958 14.738L35.1718 3.938C35.2198 4.362 35.2438 4.754 35.2438 5.114V17.75H33.2038V0.553999H34.9198C35.1278 0.553999 35.2878 0.573999 35.3998 0.613999C35.5118 0.653999 35.6198 0.765999 35.7238 0.949999L41.6638 11.534C41.7598 11.726 41.8518 11.926 41.9398 12.134C42.0358 12.342 42.1238 12.554 42.2038 12.77C42.2838 12.554 42.3678 12.342 42.4558 12.134C42.5438 11.918 42.6398 11.714 42.7438 11.522L48.5758 0.949999C48.6718 0.765999 48.7758 0.653999 48.8878 0.613999C49.0078 0.573999 49.1718 0.553999 49.3798 0.553999H51.0958ZM65.2489 15.794V17.75H55.4929V0.553999H57.8089V15.794H65.2489ZM81.5702 11.366L78.8702 4.37C78.7902 4.162 78.7062 3.922 78.6182 3.65C78.5302 3.37 78.4462 3.074 78.3662 2.762C78.1982 3.41 78.0262 3.95 77.8502 4.382L75.1502 11.366H81.5702ZM86.4182 17.75H84.6182C84.4102 17.75 84.2422 17.698 84.1142 17.594C83.9862 17.49 83.8902 17.358 83.8262 17.198L82.2182 13.046H74.5022L72.8942 17.198C72.8462 17.342 72.7542 17.47 72.6182 17.582C72.4822 17.694 72.3142 17.75 72.1142 17.75H70.3142L77.1902 0.553999H79.5422L86.4182 17.75ZM96.3083 7.754C96.2443 7.842 96.1803 7.91 96.1163 7.958C96.0523 8.006 95.9643 8.03 95.8523 8.03C95.7323 8.03 95.6003 7.982 95.4563 7.886C95.3123 7.782 95.1323 7.67 94.9163 7.55C94.7083 7.43 94.4483 7.322 94.1363 7.226C93.8323 7.122 93.4563 7.07 93.0083 7.07C92.4083 7.07 91.8803 7.178 91.4243 7.394C90.9683 7.602 90.5843 7.906 90.2723 8.306C89.9683 8.706 89.7363 9.19 89.5763 9.758C89.4243 10.326 89.3483 10.962 89.3483 11.666C89.3483 12.402 89.4323 13.058 89.6003 13.634C89.7683 14.202 90.0043 14.682 90.3083 15.074C90.6203 15.458 90.9923 15.754 91.4243 15.962C91.8643 16.162 92.3563 16.262 92.9003 16.262C93.4203 16.262 93.8483 16.202 94.1843 16.082C94.5203 15.954 94.7963 15.814 95.0123 15.662C95.2363 15.51 95.4203 15.374 95.5643 15.254C95.7163 15.126 95.8643 15.062 96.0083 15.062C96.1843 15.062 96.3203 15.13 96.4163 15.266L97.0163 16.046C96.7523 16.374 96.4523 16.654 96.1163 16.886C95.7803 17.118 95.4163 17.314 95.0243 17.474C94.6403 17.626 94.2363 17.738 93.8123 17.81C93.3883 17.882 92.9563 17.918 92.5163 17.918C91.7563 17.918 91.0483 17.778 90.3923 17.498C89.7443 17.218 89.1803 16.814 88.7003 16.286C88.2203 15.75 87.8443 15.094 87.5723 14.318C87.3003 13.542 87.1643 12.658 87.1643 11.666C87.1643 10.762 87.2883 9.926 87.5363 9.158C87.7923 8.39 88.1603 7.73 88.6403 7.178C89.1283 6.618 89.7243 6.182 90.4283 5.87C91.1403 5.558 91.9563 5.402 92.8763 5.402C93.7323 5.402 94.4843 5.542 95.1323 5.822C95.7883 6.094 96.3683 6.482 96.8723 6.986L96.3083 7.754ZM105.897 12.278C104.913 12.31 104.073 12.39 103.377 12.518C102.689 12.638 102.125 12.798 101.685 12.998C101.253 13.198 100.937 13.434 100.737 13.706C100.545 13.978 100.449 14.282 100.449 14.618C100.449 14.938 100.501 15.214 100.605 15.446C100.709 15.678 100.849 15.87 101.025 16.022C101.209 16.166 101.421 16.274 101.661 16.346C101.909 16.41 102.173 16.442 102.453 16.442C102.829 16.442 103.173 16.406 103.485 16.334C103.797 16.254 104.089 16.142 104.361 15.998C104.641 15.854 104.905 15.682 105.153 15.482C105.409 15.282 105.657 15.054 105.897 14.798V12.278ZM98.9972 7.31C99.6692 6.662 100.393 6.178 101.169 5.858C101.945 5.538 102.805 5.378 103.749 5.378C104.429 5.378 105.033 5.49 105.561 5.714C106.089 5.938 106.533 6.25 106.893 6.65C107.253 7.05 107.525 7.534 107.709 8.102C107.893 8.67 107.985 9.294 107.985 9.974V17.75H107.037C106.829 17.75 106.669 17.718 106.557 17.654C106.445 17.582 106.357 17.446 106.293 17.246L106.053 16.094C105.733 16.39 105.421 16.654 105.117 16.886C104.813 17.11 104.493 17.302 104.157 17.462C103.821 17.614 103.461 17.73 103.077 17.81C102.701 17.898 102.281 17.942 101.817 17.942C101.345 17.942 100.901 17.878 100.485 17.75C100.069 17.614 99.7052 17.414 99.3932 17.15C99.0892 16.886 98.8452 16.554 98.6612 16.154C98.4852 15.746 98.3972 15.266 98.3972 14.714C98.3972 14.234 98.5292 13.774 98.7932 13.334C99.0572 12.886 99.4852 12.49 100.077 12.146C100.669 11.802 101.441 11.522 102.393 11.306C103.345 11.082 104.513 10.954 105.897 10.922V9.974C105.897 9.03 105.693 8.318 105.285 7.838C104.877 7.35 104.281 7.106 103.497 7.106C102.969 7.106 102.525 7.174 102.165 7.31C101.813 7.438 101.505 7.586 101.241 7.754C100.985 7.914 100.761 8.062 100.569 8.198C100.385 8.326 100.201 8.39 100.017 8.39C99.8732 8.39 99.7492 8.354 99.6452 8.282C99.5412 8.202 99.4532 8.106 99.3812 7.994L98.9972 7.31ZM119.159 8.486C118.759 7.95 118.327 7.578 117.863 7.37C117.399 7.154 116.879 7.046 116.303 7.046C115.175 7.046 114.307 7.45 113.699 8.258C113.091 9.066 112.787 10.218 112.787 11.714C112.787 12.506 112.855 13.186 112.991 13.754C113.127 14.314 113.327 14.778 113.591 15.146C113.855 15.506 114.179 15.77 114.563 15.938C114.947 16.106 115.383 16.19 115.871 16.19C116.575 16.19 117.187 16.03 117.707 15.71C118.235 15.39 118.719 14.938 119.159 14.354V8.486ZM121.295 0.0739994V17.75H120.023C119.719 17.75 119.527 17.602 119.447 17.306L119.255 15.83C118.735 16.454 118.143 16.958 117.479 17.342C116.815 17.726 116.047 17.918 115.175 17.918C114.479 17.918 113.847 17.786 113.279 17.522C112.711 17.25 112.227 16.854 111.827 16.334C111.427 15.814 111.119 15.166 110.903 14.39C110.687 13.614 110.579 12.722 110.579 11.714C110.579 10.818 110.699 9.986 110.939 9.218C111.179 8.442 111.523 7.77 111.971 7.202C112.419 6.634 112.967 6.19 113.615 5.87C114.271 5.542 115.007 5.378 115.823 5.378C116.567 5.378 117.203 5.506 117.731 5.762C118.267 6.01 118.743 6.358 119.159 6.806V0.0739994H121.295ZM132.805 10.346C132.805 9.85 132.733 9.398 132.589 8.99C132.453 8.574 132.249 8.218 131.977 7.922C131.713 7.618 131.389 7.386 131.005 7.226C130.621 7.058 130.185 6.974 129.697 6.974C128.673 6.974 127.861 7.274 127.261 7.874C126.669 8.466 126.301 9.29 126.157 10.346H132.805ZM134.533 16.046C134.269 16.366 133.953 16.646 133.585 16.886C133.217 17.118 132.821 17.31 132.397 17.462C131.981 17.614 131.549 17.726 131.101 17.798C130.653 17.878 130.209 17.918 129.769 17.918C128.929 17.918 128.153 17.778 127.441 17.498C126.737 17.21 126.125 16.794 125.605 16.25C125.093 15.698 124.693 15.018 124.405 14.21C124.117 13.402 123.973 12.474 123.973 11.426C123.973 10.578 124.101 9.786 124.357 9.05C124.621 8.314 124.997 7.678 125.485 7.142C125.973 6.598 126.569 6.174 127.273 5.87C127.977 5.558 128.769 5.402 129.649 5.402C130.377 5.402 131.049 5.526 131.665 5.774C132.289 6.014 132.825 6.366 133.273 6.83C133.729 7.286 134.085 7.854 134.341 8.534C134.597 9.206 134.725 9.974 134.725 10.838C134.725 11.174 134.689 11.398 134.617 11.51C134.545 11.622 134.409 11.678 134.209 11.678H126.085C126.109 12.446 126.213 13.114 126.397 13.682C126.589 14.25 126.853 14.726 127.189 15.11C127.525 15.486 127.925 15.77 128.389 15.962C128.853 16.146 129.373 16.238 129.949 16.238C130.485 16.238 130.945 16.178 131.329 16.058C131.721 15.93 132.057 15.794 132.337 15.65C132.617 15.506 132.849 15.374 133.033 15.254C133.225 15.126 133.389 15.062 133.525 15.062C133.701 15.062 133.837 15.13 133.933 15.266L134.533 16.046ZM137.348 17.75V5.594H138.632C138.936 5.594 139.124 5.742 139.196 6.038L139.352 7.286C139.8 6.734 140.304 6.282 140.864 5.93C141.424 5.578 142.072 5.402 142.808 5.402C143.624 5.402 144.284 5.63 144.788 6.086C145.3 6.542 145.668 7.158 145.892 7.934C146.068 7.494 146.292 7.114 146.564 6.794C146.844 6.474 147.156 6.21 147.5 6.002C147.844 5.794 148.208 5.642 148.592 5.546C148.984 5.45 149.38 5.402 149.78 5.402C150.42 5.402 150.988 5.506 151.484 5.714C151.988 5.914 152.412 6.21 152.756 6.602C153.108 6.994 153.376 7.478 153.56 8.054C153.744 8.622 153.836 9.274 153.836 10.01V17.75H151.688V10.01C151.688 9.058 151.48 8.338 151.064 7.85C150.648 7.354 150.048 7.106 149.264 7.106C148.912 7.106 148.576 7.17 148.256 7.298C147.944 7.418 147.668 7.598 147.428 7.838C147.188 8.078 146.996 8.382 146.852 8.75C146.716 9.11 146.648 9.53 146.648 10.01V17.75H144.5V10.01C144.5 9.034 144.304 8.306 143.912 7.826C143.52 7.346 142.948 7.106 142.196 7.106C141.668 7.106 141.18 7.25 140.732 7.538C140.284 7.818 139.872 8.202 139.496 8.69V17.75H137.348ZM167.266 5.594L160.486 21.338C160.414 21.498 160.322 21.626 160.21 21.722C160.106 21.818 159.942 21.866 159.718 21.866H158.134L160.354 17.042L155.338 5.594H157.186C157.37 5.594 157.514 5.642 157.618 5.738C157.73 5.826 157.806 5.926 157.846 6.038L161.098 13.694C161.226 14.03 161.334 14.382 161.422 14.75C161.534 14.374 161.654 14.018 161.782 13.682L164.938 6.038C164.986 5.91 165.066 5.806 165.178 5.726C165.298 5.638 165.43 5.594 165.574 5.594H167.266Z" fill="#444444"/>
</svg>
