<svg width="50" height="57" viewBox="0 0 50 57" fill="none" xmlns="http://www.w3.org/2000/svg">
<g clip-path="url(#clip0_153_267)">
<path d="M9.105 31.33V27.94C19.1304 26.5635 29.2406 25.8968 39.36 25.945C39.36 26.845 39.36 27.76 39.27 28.675C42.1464 27.3986 45.1692 26.4816 48.27 25.945C46.2937 20.833 42.6926 16.5119 38.0207 13.6463C33.3487 10.7808 27.8646 9.52964 22.4121 10.0853C16.9596 10.6409 11.8407 12.9726 7.84278 16.7217C3.84488 20.4707 1.18946 25.4294 0.285004 30.835L9.105 31.33Z" fill="#FDC305"/>
<path d="M40.86 36.595C39.12 38.515 38.775 38.395 38.775 41.77C38.775 43.135 38.775 49.12 38.775 55.54C42.2138 53.269 45.0368 50.1819 46.992 46.5542C48.9472 42.9265 49.9737 38.8711 49.98 34.75C49.9602 33.1888 49.7996 31.6324 49.5 30.1C46.3923 31.9443 43.4951 34.1222 40.86 36.595Z" fill="#FDC305"/>
<path d="M9.54 38.83C9.54 38.83 3.855 36.67 1.755 36.085C1.1806 35.9039 0.594146 35.7635 0 35.665C0.162593 39.9939 1.44838 44.2061 3.73108 47.8879C6.01378 51.5697 9.21489 54.5944 13.02 56.665L9.54 38.83Z" fill="#FDC305"/>
<path d="M39.435 25.9299C39.496 17.6479 38.793 9.37784 37.335 1.22491C37.335 1.22491 37.125 -0.710085 36 0.864915C35.1164 2.73712 34.51 4.728 34.2 6.77491C27.8128 6.36357 21.4013 6.53427 15.045 7.28491C13.86 3.24991 11.775 1.37491 10.77 1.74991C9.76501 2.12491 9.69001 6.71491 9.69001 6.71491L9.19501 27.8649C19.2169 26.5089 29.322 25.8623 39.435 25.9299V25.9299Z" fill="#F06351"/>
<path d="M18.615 21.2499C18.615 21.1149 20.115 22.2699 20.73 22.6299C21.345 22.9899 21.645 23.2599 21.645 23.5149C21.645 23.7699 21.24 24.0249 20.7 24.0249C20.16 24.0249 19.335 23.8449 19.2 23.6199H20.61H21.045C20.1311 22.944 19.3136 22.1467 18.615 21.2499V21.2499Z" fill="black"/>
<path d="M29.835 21.415L28.2 23.41C28.2 23.5 27.945 23.935 28.47 23.86C29.0913 23.7674 29.7035 23.6218 30.3 23.425C30.465 23.425 30.405 23.14 30.135 23.17C29.865 23.2 29.1 23.245 28.635 23.335L29.895 21.445C29.895 21.445 30 21.25 29.835 21.415Z" fill="black"/>
<path d="M25.125 30.55C25.8203 30.2437 26.395 29.7164 26.76 29.05C27.18 28.075 26.76 27.685 26.1 27.55C25.1968 27.3852 24.2647 27.5673 23.49 28.06C22.905 28.6 22.98 29.14 23.415 29.56C23.942 29.9593 24.5163 30.2918 25.125 30.55V30.55Z" fill="black"/>
<path d="M24.525 32.4251C24.3569 32.7678 24.1224 33.0738 23.835 33.3251C23.4078 33.6688 22.8827 33.8683 22.335 33.8951C21.5457 33.958 20.7609 33.7285 20.13 33.2501C19.8334 33.0712 19.5654 32.8487 19.335 32.5901C19.1843 32.4237 19.0003 32.2909 18.795 32.2001C18.795 32.2001 19.92 38.3501 22.65 39.3251C25.38 40.3001 25.86 38.2001 25.95 37.6301C26.0402 35.9278 25.6113 34.2382 24.72 32.7851C24.69 32.3201 24.675 32.6201 24.525 32.4251Z" fill="#F06351"/>
<path d="M22.065 34.1349C21.368 34.0371 20.6983 33.7976 20.0973 33.4313C19.4962 33.065 18.9765 32.5796 18.57 32.0049C18.55 31.9854 18.5342 31.9621 18.5234 31.9363C18.5125 31.9105 18.507 31.8829 18.507 31.8549C18.507 31.827 18.5125 31.7994 18.5234 31.7736C18.5342 31.7478 18.55 31.7245 18.57 31.7049C18.5896 31.685 18.6129 31.6691 18.6387 31.6583C18.6644 31.6475 18.6921 31.6419 18.72 31.6419C18.7479 31.6419 18.7756 31.6475 18.8014 31.6583C18.8271 31.6691 18.8505 31.685 18.87 31.7049C19.6272 32.7463 20.7644 33.4469 22.035 33.6549V33.6549C22.5325 33.6175 23.0139 33.4619 23.4391 33.201C23.8644 32.9401 24.2212 32.5815 24.48 32.1549L24.69 31.8699L24.84 32.1849C24.84 32.1849 25.395 33.3249 26.34 33.3849C27.285 33.4449 27.915 32.7699 28.755 31.4649C28.7746 31.445 28.7979 31.4291 28.8237 31.4183C28.8494 31.4075 28.8771 31.4019 28.905 31.4019C28.9329 31.4019 28.9606 31.4075 28.9864 31.4183C29.0121 31.4291 29.0355 31.445 29.055 31.4649C29.1035 31.4959 29.1383 31.5442 29.1522 31.6C29.1662 31.6558 29.1582 31.7148 29.13 31.7649C28.17 33.2649 27.225 33.9249 26.31 33.8649C25.962 33.8144 25.63 33.6855 25.339 33.488C25.048 33.2906 24.8056 33.0296 24.63 32.7249C24.335 33.1367 23.9514 33.477 23.5075 33.721C23.0636 33.965 22.5707 34.1065 22.065 34.1349V34.1349Z" fill="black"/>
<path d="M39.36 28.6299C36.6667 31.0655 34.1268 33.6654 31.755 36.4149C29.398 39.1542 26.7357 41.6151 23.82 43.7499C23.49 42.9549 21.39 41.4849 21.39 41.4849C21.39 41.4849 16.695 38.2749 13.62 35.7549C11.9612 34.356 10.393 32.8529 8.925 31.2549L5.925 31.0899C10.2603 37.3983 16.6053 42.0513 23.925 44.2899C25.215 44.0799 28.83 41.4999 31.53 39.3999C34.7083 36.6727 37.686 33.7201 40.44 30.5649C41.1937 29.6815 41.7739 28.6637 42.15 27.5649C40.5 28.1499 39.36 28.6299 39.36 28.6299Z" fill="#F06351"/>
</g>
<defs>
<clipPath id="clip0_153_267">
<rect width="49.98" height="56.415" fill="white" transform="translate(0 0.25)"/>
</clipPath>
</defs>
</svg>
