<svg width="22" height="20" viewBox="0 0 22 20" fill="none" xmlns="http://www.w3.org/2000/svg">
<path d="M9.63627 0.829428C10.0411 1.35078 10.3943 1.8113 10.4977 1.95033C11.0768 2.7851 11.6033 3.65573 12.0741 4.55708C11.9102 5.10907 11.6601 5.63118 11.3333 6.10375C10.9543 6.47739 10.1704 6.72937 10.0411 5.59978C9.91193 4.47019 9.86024 3.72292 9.86024 3.72292C9.86024 3.72292 8.19769 0.742536 7.57746 0.70778C6.95723 0.673023 2.55533 3.72292 1.3924 5.05236C0.384528 6.17327 0.186401 6.09506 0.186401 8.0675C0.186401 9.37088 0.332842 13.8458 0.298385 17.8254C1.85757 17.9992 4.14897 18.4337 4.83811 19.459C4.83811 19.459 4.5883 13.2202 11.5659 16.4873C11.5659 16.4873 11.8071 7.98061 21.4378 10.1616C18.1639 6.28435 14.1505 3.11073 9.63627 0.829428Z" fill="#F06351"/>
</svg>
